<svg width="32" height="32" viewBox="0 0 32 32" fill="none" xmlns="http://www.w3.org/2000/svg">
<path d="M7.77531 12.4323C7.77531 8.28609 13.1012 5.92285 16.4546 5.92285C19.808 5.92285 25.1339 8.28609 25.1339 12.4323V17.619C25.1339 18.5514 25.7062 19.4008 26.2364 20.1677C26.6483 20.7633 26.9979 21.6458 26.9092 22.8869C26.8566 23.6235 26.1819 24.2836 25.6798 24.6772C25.3368 24.9461 24.9043 25.0568 24.4684 25.0568H8.41316C7.99484 25.0568 7.57908 24.9554 7.24846 24.6991C6.72508 24.2934 6.00001 23.5721 6 22.6897C5.99999 21.5361 6.4216 20.6637 6.85391 20.0723C7.3396 19.4078 7.77531 18.6461 7.77531 17.8231V12.4323Z" stroke="#111111" stroke-width="1.9306"/>
<path d="M13.4951 24.8594C13.4951 24.8594 13.4951 28.6073 16.454 28.6073C20.0046 28.6073 19.8073 24.8594 19.8073 24.8594" stroke="#111111" stroke-width="1.9306"/>
<circle cx="23.5" cy="8.5" r="3.5" fill="#F7D00F"/>
</svg>
