<svg width="34" height="34" viewBox="0 0 34 34" fill="none" xmlns="http://www.w3.org/2000/svg">
<path fill-rule="evenodd" clip-rule="evenodd" d="M17 33C8.16344 33 1 25.8366 1 17C1 8.16344 8.16344 1 17 1C25.8366 1 33 8.16344 33 17C33 25.8366 25.8366 33 17 33ZM20.2 13.8C20.2 15.568 18.768 17 17 17C15.232 17 13.8 15.568 13.8 13.8C13.8 12.032 15.232 10.6 17 10.6C18.768 10.6 20.2 12.032 20.2 13.8ZM10.6 21.8C10.6 19.672 14.864 18.6 17 18.6C19.136 18.6 23.4 19.672 23.4 21.8V22.6C23.4 23.04 23.04 23.4 22.6 23.4H11.4C10.96 23.4 10.6 23.04 10.6 22.6V21.8Z" fill="#F2F2F2"/>
<path d="M17 17C18.768 17 20.2 15.568 20.2 13.8C20.2 12.032 18.768 10.6 17 10.6C15.232 10.6 13.8 12.032 13.8 13.8C13.8 15.568 15.232 17 17 17Z" fill="#CDCDCD"/>
<path d="M17 18.6C14.864 18.6 10.6 19.672 10.6 21.8V22.6C10.6 23.04 10.96 23.4 11.4 23.4H22.6C23.04 23.4 23.4 23.04 23.4 22.6V21.8C23.4 19.672 19.136 18.6 17 18.6Z" fill="#CDCDCD"/>
</svg>
