<svg width="30" height="30" viewBox="0 0 30 30" fill="none" xmlns="http://www.w3.org/2000/svg">
<circle cx="15" cy="15" r="15" fill="#373D5F"/>
<path fill-rule="evenodd" clip-rule="evenodd" d="M17.9352 14.7485C17.9352 15.167 17.8528 15.5814 17.6927 15.968C17.5325 16.3547 17.2978 16.706 17.0019 17.0019C16.706 17.2978 16.3547 17.5325 15.968 17.6927C15.5814 17.8528 15.167 17.9352 14.7485 17.9352C14.33 17.9352 13.9157 17.8528 13.529 17.6927C13.1424 17.5325 12.7911 17.2978 12.4952 17.0019C12.1993 16.706 11.9645 16.3547 11.8044 15.968C11.6442 15.5814 11.5618 15.167 11.5618 14.7485C11.5618 13.9034 11.8976 13.0928 12.4952 12.4952C13.0928 11.8976 13.9034 11.5618 14.7485 11.5618C15.5937 11.5618 16.4042 11.8976 17.0019 12.4952C17.5995 13.0928 17.9352 13.9034 17.9352 14.7485ZM17.3545 18.1052C16.5008 18.768 15.4265 19.0805 14.3504 18.9792C13.2743 18.8778 12.2773 18.3701 11.5623 17.5595C10.8474 16.7489 10.4682 15.6963 10.5021 14.6159C10.5359 13.5356 10.9802 12.5088 11.7445 11.7445C12.5088 10.9802 13.5356 10.5359 14.6159 10.5021C15.6963 10.4682 16.7489 10.8474 17.5595 11.5623C18.3701 12.2773 18.8778 13.2743 18.9792 14.3504C19.0805 15.4265 18.768 16.5008 18.1052 17.3545L20.081 19.3303C20.1331 19.3789 20.175 19.4376 20.204 19.5027C20.233 19.5679 20.2487 19.6382 20.2499 19.7095C20.2512 19.7808 20.2381 19.8517 20.2113 19.9178C20.1846 19.9839 20.1449 20.044 20.0944 20.0944C20.044 20.1449 19.9839 20.1846 19.9178 20.2113C19.8517 20.2381 19.7808 20.2512 19.7095 20.2499C19.6382 20.2487 19.5679 20.233 19.5027 20.204C19.4376 20.175 19.3789 20.1331 19.3303 20.081L17.3545 18.1052Z" fill="white"/>
</svg>
